<?xml version="1.0" encoding="utf-8"?>
<!-- Generator: Adobe Illustrator 24.3.0, SVG Export Plug-In . SVG Version: 6.00 Build 0)  -->
<svg version="1.1" id="Layer_1" xmlns="http://www.w3.org/2000/svg" xmlns:xlink="http://www.w3.org/1999/xlink" x="0px" y="0px"
	 viewBox="0 0 100 100" style="enable-background:new 0 0 100 100;" xml:space="preserve">
<style type="text/css">
	.st0{fill-rule:evenodd;clip-rule:evenodd;fill:none;stroke:#000000;stroke-width:3;stroke-linecap:round;stroke-miterlimit:10;}
</style>
<g>
	<line class="st0" x1="5.5" y1="21.8" x2="5.5" y2="95.5"/>
	<path class="st0" d="M6.1,46.9c0,0,20.5-7.7,30.6,8.3"/>
	<path class="st0" d="M35.6,69.8c0,0-6.3-12.4,5.8-18.3s23.4,1.1,23.4,1.1s-6.5-17.4-6.9-21.2c0,0-1.8-6.4-11.1-6.2
		c0,0-6.6-1.3-6.9-8.9S44.4,5.5,47.2,5s9.4-1.8,19.3,4.4c7.7,8.7,19,25.6,25.3,41.3s0.8,19.5-5.1,23.4c-5.9,3.9-21.9,16.4-51.5,8.1
		c0,0-16.5,9.6-29.6,1.5"/>
</g>
</svg>
