<?xml version="1.0" encoding="utf-8"?>
<!-- Generator: Adobe Illustrator 24.3.0, SVG Export Plug-In . SVG Version: 6.00 Build 0)  -->
<svg version="1.1" id="Layer_1" xmlns="http://www.w3.org/2000/svg" xmlns:xlink="http://www.w3.org/1999/xlink" x="0px" y="0px"
	 viewBox="0 0 100 100" style="enable-background:new 0 0 100 100;" xml:space="preserve">
<style type="text/css">
	.st0{fill:none;stroke:#000000;stroke-width:3;stroke-linecap:round;stroke-miterlimit:10;}
	.st1{fill:none;stroke:#000000;stroke-width:2;stroke-linecap:round;stroke-miterlimit:10;}
</style>
<path class="st0" d="M77.6,82.7c-7.5,9.2-18.9,15.1-31.7,15.1C23.4,97.8,5.1,79.5,5.1,57s18.3-40.8,40.8-40.8
	c14.7,0,27.6,7.8,34.8,19.5"/>
<path class="st0" d="M69.8,81.7c-6.2,6-14.6,9.6-23.8,9.6c-19,0-34.3-15.4-34.3-34.3S27,22.6,45.9,22.6c11.2,0,21.1,5.3,27.4,13.6"
	/>
<line class="st1" x1="18.2" y1="56.8" x2="22.1" y2="56.8"/>
<line class="st1" x1="21.9" y1="70.7" x2="25.2" y2="68.8"/>
<line class="st1" x1="32" y1="80.9" x2="33.9" y2="77.5"/>
<line class="st1" x1="45.8" y1="84.7" x2="45.8" y2="80.8"/>
<line class="st1" x1="59.7" y1="81" x2="57.7" y2="77.7"/>
<line class="st1" x1="59.9" y1="33" x2="58" y2="36.4"/>
<line class="st1" x1="46.1" y1="29.2" x2="46.1" y2="33.1"/>
<line class="st1" x1="32.2" y1="32.9" x2="34.1" y2="36.2"/>
<line class="st1" x1="22" y1="43" x2="25.4" y2="44.9"/>
<polyline class="st0" points="29.9,56.8 46.1,57.1 46.1,46.8 "/>
<path class="st1" d="M85.4,44.2c4.9,0,8.8,4.5,8.8,10c0.4,11.2-17.7,20.4-17.7,20.4s-18.1-9.2-17.7-20.4c-0.1-5.5,3.9-10,8.8-10
	c4.8,0,8.8,4.5,8.8,10C76.4,48.7,80.4,44.2,85.4,44.2z"/>
<path class="st1" d="M77.7,68.4c0,0,6.1-3.4,9-9"/>
<path class="st1" d="M40.1,16.1V7c0-3.1,2.6-5.7,5.7-5.7l0,0c3.1,0,5.7,2.6,5.7,5.7v9.1"/>
<path class="st1" d="M19.2,26.5l-3.8-5.2c-1.3-1.8-0.9-4.3,0.9-5.6l0,0c1.8-1.3,4.3-0.9,5.6,0.9l3.8,5.2"/>
<path class="st1" d="M74.4,26.5l3.8-5.2c1.3-1.8,0.9-4.3-0.9-5.6l0,0c-1.8-1.3-4.3-0.9-5.6,0.9l-3.8,5.2"/>
</svg>
