<?xml version="1.0" encoding="utf-8"?>
<!-- Generator: Adobe Illustrator 24.3.0, SVG Export Plug-In . SVG Version: 6.00 Build 0)  -->
<svg version="1.1" id="Layer_1" xmlns="http://www.w3.org/2000/svg" xmlns:xlink="http://www.w3.org/1999/xlink" x="0px" y="0px"
	 viewBox="0 0 100 100" style="enable-background:new 0 0 100 100;" xml:space="preserve">
<style type="text/css">
	
		.st0{fill-rule:evenodd;clip-rule:evenodd;fill:none;stroke:#000000;stroke-width:3;stroke-linecap:round;stroke-linejoin:round;stroke-miterlimit:10;}
</style>
<g>
	<path class="st0" d="M60.3,58.4l22.1,28.1c0,0,4.7,4.4,1.8,7.8c-2.9,3.4-6.9,1.5-6.9,1.5L48.1,70.6c0,0-12.2,2.9-15,3.5
		S30.5,77,30.5,77l0.7,14.9c0,0-0.9,4.7-5.2,4.9s-5.1-3.9-5.1-3.9s-2.7-13.6-3.5-18.1s2.5-7.1,2.5-7.1L37,58.4"/>
	<path class="st0" d="M8.7,34.4L36,30.6c0,0,12.3,5.2,23.9,0c14.3,2,28.7,3.8,28.7,3.8s2.5,0.8,2.6,4.3c0.1,3.5-4.6,3.8-4.6,3.8
		l-21.8,1.7l-4.5,14.3H37l-5.3-14.4l-23-1.6c0,0-3.4-0.7-3.4-4.3C5.3,34.5,8.7,34.4,8.7,34.4z"/>
	<circle class="st0" cx="48.4" cy="13.4" r="10.2"/>
	<line class="st0" x1="11.1" y1="96.8" x2="94.7" y2="96.8"/>
</g>
</svg>
