<?xml version="1.0" encoding="utf-8"?>
<!-- Generator: Adobe Illustrator 24.3.0, SVG Export Plug-In . SVG Version: 6.00 Build 0)  -->
<svg version="1.1" id="Layer_1" xmlns="http://www.w3.org/2000/svg" xmlns:xlink="http://www.w3.org/1999/xlink" x="0px" y="0px"
	 viewBox="0 0 100 100" style="enable-background:new 0 0 100 100;" xml:space="preserve">
<style type="text/css">
	.st0{fill:none;stroke:#1E1E1E;stroke-width:3;stroke-linecap:round;stroke-linejoin:round;}
	.st1{fill:none;stroke:#1E1E1E;stroke-width:2;stroke-miterlimit:10;}
</style>
<g id="Page-1">
	<g id="About_Us" transform="translate(-1517.000000, -944.000000)">
		<g id="woman-up-front" transform="translate(897.000000, 665.000000)">
			<g transform="translate(622.000000, 280.000000)">
				<path id="Path" class="st0" d="M64.5,3c-2,7.6-9,13-17,13s-15-5.4-17-13"/>
				<path id="Path_1_" class="st0" d="M83.1,1l5.5,16.2c1.8,5.3,0.9,11.1-2.4,15.6S77.6,40,71.9,40H24.1c-5.6,0-10.9-2.7-14.3-7.2
					S5.6,22.5,7.4,17.2L12.9,1"/>
				<path id="Path_2_" class="st0" d="M21.8,40c3.6,27.1-8.3,57-8.3,57"/>
				<path id="Path_3_" class="st0" d="M74.2,40c-3.6,27.1,8.3,57,8.3,57"/>
				<path id="Path_4_" class="st0" d="M63.5,64c-0.4-3.5-1.5-6.8-3.1-10c-1.7-2.2-9.3-3-12.4-3s-10.7,0.9-12.4,3
					c-1.6,3.1-2.7,6.5-3.1,10"/>
				<path id="Path_5_" class="st0" d="M37.5,78h4.4c1.8,0,3.5-0.7,4.7-2s1.9-3.1,1.9-5"/>
				<path id="Path_6_" class="st0" d="M58.5,78h-4.4c-1.8,0-3.5-0.7-4.7-2s-1.9-3.1-1.9-5"/>
				<line id="Path_7_" class="st0" x1="48.5" y1="71" x2="48.5" y2="64"/>
			</g>
		</g>
	</g>
</g>
<circle class="st1" cx="51.1" cy="92.7" r="4.9"/>
</svg>
